# xmcd
#
# Track frame offsets:
#	150
#	17785
#	30788
#	43930
#	61268
#	85035
#	98675
#	116465
#	131575
#	146960
#
# Disc length: 2241 seconds
#
# Revision: 0
# Processed by: cddbd v1.4PL0 Copyright (c) Steve Scherf et al.
# Submitted via: audiograbber 1.81.03
#
DISCID=7c08bf0a
DTITLE=Ottar Big Hand - Midt I Livet
DYEAR=1900
DGENRE=Country
TTITLE0=Æ Gir dæ Handa Mi
TTITLE1=No I Natt
TTITLE2=Ein Fyr Som Tenne På Dæ
TTITLE3=Den Du Ville Ha
TTITLE4=En Del Av Mitt Hjerte
TTITLE5=Sølvgrå Cadiillac
TTITLE6=Farmor
TTITLE7=Når Det E` Regnvær
TTITLE8=Førr Ei Natt
TTITLE9=Midnight Kaffe` 
EXTD=
EXTT0=
EXTT1=
EXTT2=
EXTT3=
EXTT4=
EXTT5=
EXTT6=
EXTT7=
EXTT8=
EXTT9=
PLAYORDER=
